<svg width="60" height="60" viewBox="0 0 60 60" fill="none" xmlns="http://www.w3.org/2000/svg">
<path d="M40.3125 2.5C37.43 2.6675 34.1208 4.27336 32.1533 6.31836C30.3758 8.17836 28.9734 10.9408 29.5459 13.6133C32.6784 13.6958 35.8226 12.0483 37.7051 9.96582C39.4626 8.01832 40.795 5.3 40.3125 2.5ZM40.4834 13.6084C35.9609 13.6084 34.07 16.3867 30.9375 16.3867C27.715 16.3867 24.7691 13.7842 20.8691 13.7842C15.5641 13.7867 7.5 18.7008 7.5 30.2783C7.5 40.8108 17.0441 52.5 22.4316 52.5C25.7041 52.5325 26.4975 50.4424 30.9375 50.4199C35.3825 50.3874 36.3416 52.5275 39.6191 52.5C43.3091 52.4725 46.1909 48.4176 48.2959 45.2051C49.8059 42.9051 50.4267 41.7309 51.5967 39.1309C42.9142 36.9309 41.1867 22.9292 51.5967 20.0342C49.6317 16.6817 43.8959 13.6084 40.4834 13.6084Z" fill="#FFF8E5"/>
</svg>
